# xmcd
#
# Track frame offsets:
#	150
#	14499
#	29107
#	39406
#	48885
#	61045
#	79375
#	96802
#	109742
#	124514
#	136175
#	149704
#	167554
#	182178
#	195870
#	215850
#
# Disc length: 3104 seconds
#
# Revision: 1
# Processed by: cddbd v1.5.2PL0 Copyright (c) Steve Scherf et al.
# Submitted via: EasyCDDAExtractor 11.5.3.1
#
DISCID=e20c1e10
DTITLE=Various Artist - campfire cd2
DYEAR=1998
DGENRE=Country
TTITLE0=richard and mimi farina - reno nevada
TTITLE1=ian and sylvia - marry anne
TTITLE2=the weavers - erie canal
TTITLE3=the kingston trio - when the saints go marching in
TTITLE4=junior wells - im your hoochie coochie man
TTITLE5=judy collins - turn turn turn
TTITLE6=harry chapin - cats in the cradle
TTITLE7=pee wee crayton - let the good times roll
TTITLE8=doc watson - tom dooley
TTITLE9=the weavers - which side are you on
TTITLE10=phil ochs - ballad of medgar evers
TTITLE11=tom paxton - ramblin boy
TTITLE12=odetta - john henry
TTITLE13=prairie oyster - long gone daddy
TTITLE14=harry chapin - i want to learn a love song
TTITLE15=eric andersen - violets of the dawn
EXTD=
EXTT0=
EXTT1=
EXTT2=
EXTT3=
EXTT4=
EXTT5=
EXTT6=
EXTT7=
EXTT8=
EXTT9=
EXTT10=
EXTT11=
EXTT12=
EXTT13=
EXTT14=
EXTT15=
PLAYORDER=
